<?xml version="1.0" encoding="utf-8"?>
<!-- Generator: Adobe Illustrator 16.0.0, SVG Export Plug-In . SVG Version: 6.00 Build 0)  -->
<!DOCTYPE svg PUBLIC "-//W3C//DTD SVG 1.1//EN" "http://www.w3.org/Graphics/SVG/1.1/DTD/svg11.dtd">
<svg version="1.1" id="Layer_1" xmlns="http://www.w3.org/2000/svg" xmlns:xlink="http://www.w3.org/1999/xlink" x="0px" y="0px"
	 width="154.473px" height="46.453px" viewBox="0 0 154.473 46.453" enable-background="new 0 0 154.473 46.453"
	 xml:space="preserve">
<g>
	<g>
		<rect x="89.839" fill="#231F20" width="15" height="6"/>
		<rect x="60.589" fill="#231F20" width="6" height="19.5"/>
		<rect x="70.339" fill="#231F20" width="6" height="28.5"/>
		<rect x="50.839" fill="#231F20" width="6" height="28.5"/>
		<rect x="89.839" y="9.75" fill="#231F20" width="6" height="18.75"/>
		<rect x="80.089" fill="#231F20" width="6" height="6"/>
		<rect x="80.089" y="9.75" fill="#A41F35" width="6" height="18.75"/>
	</g>
	<g>
		<path fill="#010101" d="M0,39.125h2.152l1.04,4.364H3.21l1.072-4.364h2.129V45H5.025v-4.562H5.009L3.845,45H2.55l-1.196-4.562
			H1.337V45H0V39.125z"/>
		<path fill="#010101" d="M11.229,44.083c0,0.305,0.01,0.643,0.115,0.916h-1.188c-0.051-0.148-0.074-0.306-0.083-0.455h-0.018
			c-0.214,0.348-0.857,0.571-1.32,0.571c-0.842,0-1.469-0.462-1.469-1.304c0-1.057,0.851-1.428,2.252-1.627L9.99,42.12v-0.362
			c0-0.33-0.265-0.471-0.61-0.471c-0.413,0-0.61,0.148-0.677,0.586H7.465c0.041-1.264,1.213-1.378,1.808-1.378
			c1.196,0,1.946,0.28,1.955,1.271L11.229,44.083L11.229,44.083z M9.992,42.862l-0.866,0.247c-0.322,0.092-0.619,0.215-0.619,0.57
			c0,0.346,0.289,0.494,0.602,0.494c0.503,0,0.884-0.338,0.884-1.008V42.862z"/>
		<path fill="#010101" d="M15.263,41.906c-0.256-0.307-0.809-0.473-1.212-0.473c-0.322,0-0.553,0.115-0.553,0.34
			c0,0.75,2.599,0.133,2.599,1.773c0,1.154-1.022,1.567-1.979,1.567s-1.501-0.272-2.146-0.866l0.8-0.693
			c0.396,0.379,0.801,0.619,1.387,0.619c0.215,0,0.701-0.049,0.701-0.445c0-0.686-2.599-0.141-2.599-1.7
			c0-1.104,0.965-1.534,1.857-1.534c0.676,0,1.345,0.238,1.938,0.635L15.263,41.906z"/>
		<path fill="#010101" d="M19.851,41.906c-0.256-0.307-0.809-0.473-1.213-0.473c-0.322,0-0.553,0.115-0.553,0.34
			c0,0.75,2.599,0.133,2.599,1.773c0,1.154-1.022,1.567-1.979,1.567s-1.501-0.272-2.146-0.866l0.8-0.693
			c0.396,0.379,0.801,0.619,1.387,0.619c0.215,0,0.702-0.049,0.702-0.445c0-0.686-2.6-0.141-2.6-1.7
			c0-1.104,0.965-1.534,1.856-1.534c0.677,0,1.345,0.238,1.938,0.635L19.851,41.906z"/>
		<path fill="#010101" d="M25.296,44.083c0,0.305,0.008,0.643,0.116,0.916h-1.188c-0.05-0.148-0.074-0.306-0.083-0.455h-0.017
			c-0.214,0.348-0.858,0.571-1.319,0.571c-0.842,0-1.469-0.462-1.469-1.304c0-1.057,0.85-1.428,2.252-1.627l0.471-0.065v-0.362
			c0-0.33-0.264-0.471-0.61-0.471c-0.412,0-0.61,0.148-0.677,0.586h-1.237c0.042-1.264,1.213-1.378,1.808-1.378
			c1.196,0,1.947,0.28,1.955,1.271L25.296,44.083L25.296,44.083z M24.059,42.862l-0.866,0.247c-0.321,0.092-0.618,0.215-0.618,0.57
			c0,0.346,0.289,0.494,0.603,0.494c0.503,0,0.883-0.338,0.883-1.008L24.059,42.862L24.059,42.862z"/>
		<path fill="#010101" d="M29.33,42.087c-0.231-0.496-0.627-0.604-0.825-0.604c-0.734,0-0.999,0.568-0.999,1.32
			c0,0.75,0.312,1.32,0.999,1.32c0.396,0,0.709-0.148,0.916-0.644l0.924,0.47c-0.396,0.702-1.114,1.163-1.955,1.163
			c-1.312,0-2.219-0.833-2.219-2.31c0-1.455,0.965-2.312,2.178-2.312c0.833,0,1.551,0.306,1.972,1.073L29.33,42.087z"/>
		<path fill="#010101" d="M31.071,39.125h1.287v1.897h0.017c0.248-0.339,0.8-0.528,1.205-0.528c0.924,0,1.378,0.536,1.378,1.42V45
			h-1.288v-2.633c0-0.677-0.363-0.834-0.644-0.834c-0.297,0-0.668,0.191-0.668,1.008V45h-1.287V39.125z"/>
		<path fill="#010101" d="M39.997,45H38.71v-0.389c-0.33,0.389-0.875,0.504-1.271,0.504c-1.039,0-1.328-0.602-1.328-1.264v-3.242
			h1.287v2.871c0,0.389,0.142,0.595,0.627,0.595c0.372,0,0.687-0.206,0.687-0.687v-2.779h1.287L39.997,45L39.997,45z"/>
		<path fill="#010101" d="M43.998,41.906c-0.256-0.307-0.81-0.473-1.213-0.473c-0.322,0-0.554,0.115-0.554,0.34
			c0,0.75,2.6,0.133,2.6,1.773c0,1.154-1.023,1.567-1.98,1.567s-1.501-0.272-2.146-0.866l0.801-0.693
			c0.396,0.379,0.8,0.619,1.386,0.619c0.214,0,0.701-0.049,0.701-0.445c0-0.686-2.599-0.141-2.599-1.7
			c0-1.104,0.965-1.534,1.856-1.534c0.676,0,1.345,0.238,1.939,0.635L43.998,41.906z"/>
		<path fill="#010101" d="M46.713,43.069c0.008,0.842,0.544,1.106,0.957,1.106c0.479,0,0.701-0.248,1.072-0.775l0.966,0.504
			c-0.446,0.825-1.147,1.213-2.129,1.213c-1.361,0-2.154-0.941-2.154-2.179c0-1.552,0.817-2.442,2.154-2.442
			c1.601,0,2.145,1.221,2.152,2.574L46.713,43.069L46.713,43.069z M48.445,42.277c-0.041-0.645-0.503-0.842-0.875-0.842
			c-0.37,0-0.815,0.265-0.875,0.842H48.445z"/>
		<path fill="#010101" d="M52.802,41.485h-0.768v2.151c0,0.349,0.173,0.438,0.404,0.438c0.141,0,0.322-0.017,0.389-0.024v1.016
			c-0.165,0.018-0.545,0.05-0.826,0.05c-1.098,0-1.254-0.687-1.254-1.321v-2.31h-0.628v-0.792h0.627v-1.271h1.287v1.271h0.768
			L52.802,41.485L52.802,41.485z"/>
		<path fill="#010101" d="M55.705,41.485h-0.768v2.151c0,0.349,0.173,0.438,0.405,0.438c0.141,0,0.322-0.017,0.388-0.024v1.016
			c-0.166,0.018-0.545,0.05-0.825,0.05c-1.099,0-1.255-0.687-1.255-1.321v-2.31h-0.627v-0.792h0.627v-1.271h1.287v1.271h0.768
			V41.485z"/>
		<path fill="#010101" d="M59.286,41.906c-0.256-0.307-0.81-0.473-1.213-0.473c-0.322,0-0.554,0.115-0.554,0.34
			c0,0.75,2.6,0.133,2.6,1.773c0,1.154-1.023,1.567-1.98,1.567s-1.501-0.272-2.145-0.866l0.8-0.693
			c0.396,0.379,0.8,0.619,1.386,0.619c0.214,0,0.701-0.049,0.701-0.445c0-0.686-2.599-0.141-2.599-1.7
			c0-1.104,0.965-1.534,1.856-1.534c0.677,0,1.345,0.238,1.939,0.635L59.286,41.906z"/>
		<path fill="#010101" d="M63.311,39.125h1.47V45h-1.47V39.125z"/>
		<path fill="#010101" d="M65.927,40.61h1.287V41c0.33-0.39,0.875-0.505,1.271-0.505c1.04,0,1.328,0.604,1.328,1.263v3.244h-1.287
			v-2.748c0-0.431-0.132-0.72-0.627-0.72c-0.52,0-0.685,0.339-0.685,0.733V45h-1.287V40.61z"/>
		<path fill="#010101" d="M73.814,41.906c-0.255-0.307-0.808-0.473-1.212-0.473c-0.321,0-0.553,0.115-0.553,0.34
			c0,0.75,2.599,0.133,2.599,1.773c0,1.154-1.022,1.567-1.979,1.567s-1.501-0.272-2.146-0.866l0.801-0.693
			c0.396,0.379,0.8,0.619,1.386,0.619c0.214,0,0.701-0.049,0.701-0.445c0-0.686-2.6-0.141-2.6-1.7c0-1.104,0.965-1.534,1.857-1.534
			c0.677,0,1.345,0.238,1.938,0.635L73.814,41.906z"/>
		<path fill="#010101" d="M77.726,41.485h-0.768v2.151c0,0.349,0.173,0.438,0.403,0.438c0.142,0,0.323-0.017,0.389-0.024v1.016
			c-0.165,0.018-0.545,0.05-0.826,0.05c-1.097,0-1.254-0.687-1.254-1.321v-2.31h-0.627v-0.792h0.627v-1.271h1.287v1.271h0.768
			L77.726,41.485L77.726,41.485z"/>
		<path fill="#010101" d="M78.459,40.114v-0.989h1.287v0.989H78.459z M79.746,40.61v4.392h-1.287V40.61H79.746z"/>
		<path fill="#010101" d="M83.07,41.485h-0.767v2.151c0,0.349,0.174,0.438,0.404,0.438c0.141,0,0.321-0.017,0.388-0.024v1.016
			c-0.165,0.018-0.545,0.05-0.824,0.05c-1.099,0-1.255-0.687-1.255-1.321v-2.31h-0.627v-0.792h0.627v-1.271h1.287v1.271h0.767
			V41.485z"/>
		<path fill="#010101" d="M87.69,45h-1.286v-0.389c-0.33,0.389-0.875,0.504-1.271,0.504c-1.039,0-1.328-0.602-1.328-1.264v-3.242
			h1.288v2.871c0,0.389,0.141,0.595,0.627,0.595c0.371,0,0.687-0.206,0.687-0.687v-2.779h1.286V45H87.69z"/>
		<path fill="#010101" d="M91.016,41.485h-0.768v2.151c0,0.349,0.173,0.438,0.403,0.438c0.142,0,0.322-0.017,0.389-0.024v1.016
			c-0.165,0.018-0.545,0.05-0.826,0.05c-1.097,0-1.254-0.687-1.254-1.321v-2.31h-0.627v-0.792h0.627v-1.271h1.288v1.271h0.768
			V41.485z"/>
		<path fill="#010101" d="M92.724,43.069c0.008,0.842,0.543,1.106,0.957,1.106c0.479,0,0.701-0.248,1.072-0.775l0.965,0.504
			c-0.445,0.825-1.146,1.213-2.129,1.213c-1.36,0-2.152-0.941-2.152-2.179c0-1.552,0.816-2.442,2.152-2.442
			c1.602,0,2.145,1.221,2.154,2.574L92.724,43.069L92.724,43.069z M94.455,42.277c-0.041-0.645-0.503-0.842-0.874-0.842
			s-0.816,0.265-0.875,0.842H94.455z"/>
		<path fill="#010101" d="M103.292,42.804c0,1.478-0.965,2.312-2.335,2.312s-2.335-0.834-2.335-2.312s0.965-2.311,2.335-2.311
			C102.325,40.494,103.292,41.327,103.292,42.804z M99.909,42.804c0,0.75,0.312,1.32,1.047,1.32c0.734,0,1.049-0.57,1.049-1.369
			c0-0.701-0.314-1.271-1.049-1.271S99.909,42.054,99.909,42.804z"/>
		<path fill="#010101" d="M104.298,41.485h-0.678v-0.792h0.678v-0.43c0-0.494,0.156-1.205,1.254-1.205
			c0.281,0,0.676,0.041,0.842,0.101v0.938h-0.362c-0.224,0-0.445,0.066-0.445,0.314v0.281h0.792v0.792h-0.792V45h-1.287
			L104.298,41.485L104.298,41.485z"/>
		<path fill="#010101" d="M108.852,39.125h4.538v1.139h-1.535V45h-1.468v-4.736h-1.535V39.125L108.852,39.125z"/>
		<path fill="#010101" d="M114.429,43.069c0.008,0.842,0.545,1.106,0.957,1.106c0.479,0,0.701-0.248,1.072-0.775l0.966,0.504
			c-0.445,0.825-1.147,1.213-2.128,1.213c-1.363,0-2.155-0.941-2.155-2.179c0-1.552,0.817-2.442,2.155-2.442
			c1.6,0,2.144,1.221,2.152,2.574L114.429,43.069L114.429,43.069z M116.161,42.277c-0.041-0.645-0.503-0.842-0.875-0.842
			c-0.37,0-0.816,0.265-0.874,0.842H116.161z"/>
		<path fill="#010101" d="M121.194,42.087c-0.23-0.496-0.627-0.604-0.824-0.604c-0.735,0-0.999,0.568-0.999,1.32
			c0,0.75,0.313,1.32,0.999,1.32c0.396,0,0.71-0.148,0.916-0.644l0.925,0.47c-0.397,0.702-1.115,1.163-1.956,1.163
			c-1.312,0-2.22-0.833-2.22-2.31c0-1.455,0.965-2.312,2.178-2.312c0.833,0,1.551,0.306,1.973,1.073L121.194,42.087z"/>
		<path fill="#010101" d="M122.935,39.125h1.287v1.897h0.018c0.246-0.339,0.8-0.528,1.203-0.528c0.925,0,1.38,0.536,1.38,1.42V45
			h-1.288v-2.633c0-0.677-0.363-0.834-0.645-0.834c-0.297,0-0.668,0.191-0.668,1.008V45h-1.288L122.935,39.125L122.935,39.125z"/>
		<path fill="#010101" d="M127.976,40.61h1.287V41c0.33-0.39,0.875-0.505,1.271-0.505c1.041,0,1.328,0.604,1.328,1.263v3.244h-1.287
			v-2.748c0-0.431-0.133-0.72-0.627-0.72c-0.52,0-0.685,0.339-0.685,0.733V45h-1.287V40.61L127.976,40.61z"/>
		<path fill="#010101" d="M137.372,42.804c0,1.478-0.965,2.312-2.335,2.312s-2.335-0.834-2.335-2.312s0.965-2.311,2.335-2.311
			S137.372,41.327,137.372,42.804z M133.99,42.804c0,0.75,0.313,1.32,1.048,1.32c0.733,0,1.048-0.57,1.048-1.369
			c0-0.701-0.314-1.271-1.048-1.271S133.99,42.054,133.99,42.804z"/>
		<path fill="#010101" d="M138.213,45v-5.875h1.288V45H138.213z"/>
		<path fill="#010101" d="M145.011,42.804c0,1.478-0.965,2.312-2.334,2.312c-1.37,0-2.336-0.834-2.336-2.312
			s0.966-2.311,2.336-2.311C144.046,40.494,145.011,41.327,145.011,42.804z M141.629,42.804c0,0.75,0.312,1.32,1.048,1.32
			c0.733,0,1.047-0.57,1.047-1.369c0-0.701-0.312-1.271-1.047-1.271C141.942,41.485,141.629,42.054,141.629,42.804z"/>
		<path fill="#010101" d="M149.704,40.61v4.397c0,1.395-1.427,1.443-2.104,1.443c-1.319,0-2.013-0.445-2.021-1.518h1.338
			c0.008,0.479,0.279,0.677,0.742,0.677c0.493,0,0.8-0.101,0.8-0.743v-0.504c-0.28,0.273-0.825,0.363-1.213,0.363
			c-1.229,0-1.708-0.99-1.708-2.096c0-1.074,0.562-2.138,1.725-2.138c0.479,0,0.892,0.106,1.254,0.461v-0.346h1.188L149.704,40.61
			L149.704,40.61z M147.635,41.435c-0.404,0-0.809,0.23-0.809,1.181c0,0.526,0.115,1.171,0.792,1.171
			c0.825,0,0.851-0.718,0.851-1.171C148.468,41.724,148.031,41.435,147.635,41.435z"/>
		<path fill="#010101" d="M150.653,45.446c0.148,0.008,0.299,0.017,0.438,0.017c0.388,0,0.594-0.074,0.594-0.32
			c0-0.066-0.008-0.143-0.115-0.471l-1.286-4.062h1.354l0.709,3.351h0.019l0.717-3.351h1.395l-1.544,4.679
			c-0.224,0.668-0.503,1.163-1.263,1.163h-1.016L150.653,45.446L150.653,45.446z"/>
	</g>
</g>
</svg>
